<svg width="33" height="29" viewBox="0 0 33 29" fill="none" xmlns="http://www.w3.org/2000/svg">
<path fill-rule="evenodd" clip-rule="evenodd" d="M18.375 9.66667C18.375 11.4463 20.0119 12.8889 22.0312 12.8889H31.1719C32.1815 12.8889 33 13.6102 33 14.5C33 15.3898 32.1815 16.1111 31.1719 16.1111H22.0312C20.0119 16.1111 18.375 17.5537 18.375 19.3333V27.3889C18.375 28.2787 17.5565 29 16.5469 29C15.5372 29 14.7188 28.2787 14.7188 27.3889V19.3333C14.7188 17.5537 13.0818 16.1111 11.0625 16.1111H1.92188C0.912229 16.1111 0.09375 15.3898 0.09375 14.5C0.09375 13.6102 0.912229 12.8889 1.92188 12.8889H11.0625C13.0818 12.8889 14.7188 11.4463 14.7188 9.66667V1.61111C14.7188 0.721319 15.5372 0 16.5469 0C17.5565 0 18.375 0.721319 18.375 1.61111V9.66667Z" fill="white"/>
</svg>
