<svg id="Layer_1" data-name="Layer 1" xmlns="http://www.w3.org/2000/svg" viewBox="0 0 1500 500"><title>DOIT</title><path d="M54.25,127.11A41.73,41.73,0,0,1,95.18,93.56h118q54.09,0,93.66,17.78t60.86,51.09Q389,195.74,389,240.82q0,61.11-27.8,107.18t-77.39,71.13q-49.59,25-113.7,25H41.75A41.74,41.74,0,0,1,.82,394.25ZM173.16,365q36.06,0,62.36-15.27a99.72,99.72,0,0,0,39.82-42.08q13.52-26.79,13.52-60.85,0-35.57-22-54.85T202.21,172.7H157.82a16.68,16.68,0,0,0-16.37,13.45L110,345.1A16.68,16.68,0,0,0,126.37,365Z"/><path d="M643,180.16c-28.26,24-52.32,45.9-71.5,64.17q-4,3.82-7.72,7.41c-1.7-2-3.45-4.12-5.27-6.25a619.52,619.52,0,0,0-60.08-61.12q34.71-16.17,77-16.18Q613.46,168.19,643,180.16Z"/><path d="M717.61,291.41q0,44.58-21.54,80.39t-59.35,56.35q-37.85,20.53-85.9,20.53-43.1,0-75.13-15.27T426.1,390.08Q408.55,362,408.57,325q0-39.2,16.66-71.41c47.17,40.25,77.37,81.78,87.07,96a43.53,43.53,0,0,0,4.23,6.46l22.4,36.49a16.78,16.78,0,0,0,12.64,7.88c.53.05,1,.06,1.59.06A16.72,16.72,0,0,0,565.48,395l29.92-32.78c.15-.16,2.38-2.59,6.52-6.91a6.47,6.47,0,0,0,.52-.53c15.18-15.75,54-54.82,109.74-101.68A129.78,129.78,0,0,1,717.61,291.41Z"/><path d="M788.24,264.86h94.69a25,25,0,0,1,24.57,29.92l-4.58,23A25,25,0,0,1,878.36,338H783.67a25.06,25.06,0,0,1-24.57-29.93l4.58-23A25,25,0,0,1,788.24,264.86Z"/><path d="M1027.63,93.56h48.09a25,25,0,0,1,24.56,30L1040.18,424a25,25,0,0,1-24.56,20.13h-48.1A25,25,0,0,1,943,414.22l60.1-300.53A25,25,0,0,1,1027.63,93.56Z"/><path d="M1228.48,343a85.52,85.52,0,0,0-1,9q0,23,25,23a47.7,47.7,0,0,0,6-.39A25,25,0,0,1,1286.19,395l3.35,18.26a25,25,0,0,1-16.78,28.3q-21.91,7.13-50.29,7.12-42.08,0-66.87-21T1130.81,369a116,116,0,0,1,2.5-25.54l18-89.66H1142a25,25,0,0,1-24.54-30.06l4.3-21a25.05,25.05,0,0,1,24.54-20h19.12l10-50.45A25,25,0,0,1,1200,112.09h44.1A25.05,25.05,0,0,1,1268.62,142l-8.08,40.7h31.14a25.05,25.05,0,0,1,24.57,29.89l-4.15,21a25,25,0,0,1-24.57,20.2h-41Z"/><path d="M1349.1,434.65q-15.28-14-15.27-34.55,0-24,17-39.82t42.57-15.78q24,0,39.07,13.52t15,34.06q0,23.55-17.28,40.07t-42.33,16.53Q1364.37,448.68,1349.1,434.65Zm67.67-341.09h58.17A25,25,0,0,1,1499,125.48l-49.31,172.8a25.05,25.05,0,0,1-24.08,18.17H1397a25,25,0,0,1-24.88-27.9l19.8-172.8A25,25,0,0,1,1416.77,93.56Z"/><path d="M553.15,383.74l-23.21-37.8c-.4-.64-43.16-69-120-125.86A33.39,33.39,0,1,1,449.7,166.4c52.08,38.53,90,81.17,112.59,110.12C609,230.22,709.37,137.63,840.94,56.31a33.39,33.39,0,0,1,35.11,56.81C704,219.43,584.26,349.68,583.07,351Z"/></svg>