<svg width="349" height="223" viewBox="0 0 349 223" fill="none" xmlns="http://www.w3.org/2000/svg">
<path d="M83.2158 210.268H87.25L85.8965 216.517C84.6309 216.956 83.4033 217.176 82.2139 217.176C80.667 217.176 79.4629 216.754 78.6016 215.91C77.7461 215.061 77.3184 213.877 77.3184 212.359C77.3184 210.783 77.6143 209.351 78.2061 208.062C78.8037 206.767 79.6299 205.762 80.6846 205.047C81.7393 204.326 82.9082 203.966 84.1914 203.966C84.877 203.966 85.5186 204.024 86.1162 204.142C86.7197 204.259 87.3262 204.446 87.9355 204.704L87.3555 206.04C86.9043 205.841 86.418 205.668 85.8965 205.521C85.3809 205.375 84.8125 205.302 84.1914 205.302C83.2012 205.302 82.2988 205.601 81.4844 206.198C80.6758 206.79 80.0459 207.619 79.5947 208.686C79.1436 209.752 78.918 210.944 78.918 212.263C78.918 213.376 79.2168 214.252 79.8145 214.891C80.418 215.529 81.2588 215.849 82.3369 215.849C83.2393 215.849 84.001 215.734 84.6221 215.506L85.4658 211.604H82.9258L83.2158 210.268ZM92.5059 217.176C91.4277 217.176 90.5811 216.856 89.9658 216.218C89.3506 215.579 89.043 214.694 89.043 213.563C89.043 212.462 89.2598 211.407 89.6934 210.399C90.1328 209.386 90.7129 208.598 91.4336 208.035C92.1543 207.473 92.9482 207.191 93.8154 207.191C94.7119 207.191 95.3857 207.388 95.8369 207.78C96.2881 208.167 96.5137 208.709 96.5137 209.406C96.5137 210.461 96.0273 211.29 95.0547 211.894C94.082 212.491 92.6904 212.79 90.8799 212.79H90.5898L90.5547 213.493C90.5547 214.261 90.7334 214.861 91.0908 215.295C91.4541 215.723 92.0137 215.937 92.7695 215.937C93.1387 215.937 93.5166 215.884 93.9033 215.778C94.2959 215.673 94.7822 215.479 95.3623 215.198V216.481C94.8115 216.739 94.3252 216.918 93.9033 217.018C93.4814 217.123 93.0156 217.176 92.5059 217.176ZM93.7275 208.448C93.124 208.448 92.5557 208.724 92.0225 209.274C91.4951 209.825 91.0908 210.59 90.8096 211.568H90.915C92.251 211.568 93.2734 211.396 93.9824 211.05C94.6973 210.698 95.0547 210.191 95.0547 209.529C95.0547 209.219 94.9463 208.961 94.7295 208.756C94.5186 208.551 94.1846 208.448 93.7275 208.448ZM100.53 215.972C100.853 215.972 101.274 215.896 101.796 215.743V216.877C101.597 216.959 101.351 217.029 101.058 217.088C100.765 217.146 100.53 217.176 100.354 217.176C99.6221 217.176 99.0596 217.003 98.667 216.657C98.2803 216.306 98.0869 215.784 98.0869 215.093C98.0869 214.706 98.1396 214.267 98.2451 213.774L99.3613 208.483H97.8496L97.9727 207.842L99.5986 207.156L100.697 205.152H101.559L101.075 207.367H103.483L103.255 208.483H100.855L99.7217 213.792C99.6162 214.302 99.5635 214.688 99.5635 214.952C99.5635 215.28 99.6484 215.532 99.8184 215.708C99.9883 215.884 100.226 215.972 100.53 215.972ZM119.972 209.028C119.972 210.604 119.714 212.017 119.198 213.265C118.683 214.507 117.944 215.471 116.983 216.156C116.022 216.836 114.912 217.176 113.652 217.176C112.152 217.176 110.983 216.739 110.146 215.866C109.308 214.987 108.889 213.757 108.889 212.175C108.889 210.628 109.17 209.216 109.732 207.938C110.295 206.661 111.065 205.677 112.044 204.985C113.028 204.294 114.136 203.948 115.366 203.948C116.796 203.948 117.921 204.399 118.741 205.302C119.562 206.204 119.972 207.446 119.972 209.028ZM115.252 205.284C114.332 205.284 113.509 205.58 112.782 206.172C112.056 206.764 111.49 207.587 111.086 208.642C110.688 209.696 110.488 210.862 110.488 212.14C110.488 213.306 110.775 214.217 111.35 214.873C111.924 215.523 112.703 215.849 113.688 215.849C114.578 215.849 115.375 215.564 116.078 214.996C116.787 214.422 117.347 213.602 117.757 212.535C118.167 211.469 118.372 210.288 118.372 208.993C118.372 207.827 118.097 206.919 117.546 206.269C116.995 205.612 116.23 205.284 115.252 205.284ZM127.152 207.191C127.557 207.191 127.908 207.232 128.207 207.314L127.891 208.633C127.58 208.557 127.272 208.519 126.968 208.519C126.435 208.519 125.934 208.694 125.465 209.046C125.002 209.397 124.595 209.887 124.243 210.514C123.897 211.135 123.643 211.826 123.479 212.588L122.538 217H121.062L123.118 207.367H124.34L124.146 209.151H124.234C124.656 208.595 125.005 208.196 125.28 207.956C125.556 207.71 125.843 207.522 126.142 207.394C126.446 207.259 126.783 207.191 127.152 207.191ZM137.348 207.367L137.128 208.308L135.273 208.519C135.514 208.882 135.634 209.345 135.634 209.907C135.634 211.026 135.291 211.92 134.605 212.588C133.926 213.25 133.015 213.581 131.872 213.581C131.55 213.581 131.304 213.558 131.134 213.511C130.319 213.821 129.912 214.205 129.912 214.662C129.912 214.902 130.009 215.063 130.202 215.146C130.396 215.222 130.677 215.283 131.046 215.33L132.074 215.453C133.135 215.582 133.902 215.84 134.377 216.227C134.857 216.613 135.098 217.182 135.098 217.932C135.098 219.01 134.67 219.845 133.814 220.437C132.959 221.028 131.755 221.324 130.202 221.324C129.065 221.324 128.175 221.107 127.53 220.674C126.886 220.246 126.563 219.64 126.563 218.854C126.563 218.239 126.774 217.706 127.196 217.255C127.618 216.804 128.301 216.42 129.244 216.104C128.787 215.863 128.559 215.509 128.559 215.04C128.559 214.636 128.708 214.29 129.007 214.003C129.306 213.71 129.722 213.438 130.255 213.186C129.886 212.998 129.584 212.723 129.35 212.359C129.115 211.99 128.998 211.562 128.998 211.076C128.998 209.939 129.347 209.008 130.044 208.281C130.747 207.555 131.644 207.191 132.733 207.191C133.19 207.191 133.642 207.25 134.087 207.367H137.348ZM127.987 218.714C127.987 219.165 128.178 219.522 128.559 219.786C128.939 220.05 129.505 220.182 130.255 220.182C131.321 220.182 132.153 219.994 132.751 219.619C133.354 219.25 133.656 218.726 133.656 218.046C133.656 217.683 133.498 217.396 133.182 217.185C132.865 216.974 132.326 216.827 131.564 216.745L130.167 216.604C129.464 216.751 128.925 217.009 128.55 217.378C128.175 217.747 127.987 218.192 127.987 218.714ZM130.431 211.023C130.431 211.521 130.562 211.902 130.826 212.166C131.09 212.424 131.456 212.553 131.925 212.553C132.388 212.553 132.792 212.43 133.138 212.184C133.483 211.938 133.747 211.601 133.929 211.173C134.116 210.739 134.21 210.271 134.21 209.767C134.21 209.286 134.081 208.92 133.823 208.668C133.565 208.416 133.196 208.29 132.716 208.29C132.259 208.29 131.857 208.41 131.512 208.65C131.172 208.885 130.905 209.216 130.712 209.644C130.524 210.065 130.431 210.525 130.431 211.023ZM142.313 207.191C142.853 207.191 143.333 207.338 143.755 207.631C144.177 207.918 144.505 208.334 144.739 208.879H144.836L145.425 207.367H146.541L144.493 217H143.324L143.553 215.163H143.482C142.434 216.505 141.329 217.176 140.169 217.176C139.354 217.176 138.716 216.886 138.253 216.306C137.79 215.726 137.559 214.932 137.559 213.924C137.559 212.705 137.767 211.574 138.183 210.531C138.599 209.488 139.173 208.671 139.905 208.079C140.638 207.487 141.44 207.191 142.313 207.191ZM140.644 215.954C141.212 215.954 141.777 215.685 142.34 215.146C142.902 214.601 143.359 213.895 143.711 213.027C144.062 212.154 144.238 211.281 144.238 210.408C144.238 209.805 144.074 209.324 143.746 208.967C143.418 208.609 142.987 208.431 142.454 208.431C141.845 208.431 141.276 208.683 140.749 209.187C140.228 209.69 139.817 210.373 139.519 211.234C139.22 212.096 139.07 213.004 139.07 213.959C139.07 214.627 139.208 215.128 139.483 215.462C139.759 215.79 140.146 215.954 140.644 215.954ZM153.282 217L154.583 210.918C154.7 210.309 154.759 209.887 154.759 209.652C154.759 209.283 154.653 208.987 154.442 208.765C154.237 208.542 153.906 208.431 153.449 208.431C152.928 208.431 152.418 208.606 151.92 208.958C151.428 209.31 150.991 209.811 150.61 210.461C150.235 211.111 149.951 211.899 149.758 212.825L148.87 217H147.394L149.45 207.367H150.672L150.479 209.151H150.566C151.129 208.437 151.671 207.933 152.192 207.64C152.72 207.341 153.265 207.191 153.827 207.191C154.571 207.191 155.157 207.396 155.585 207.807C156.019 208.211 156.235 208.779 156.235 209.512C156.235 209.975 156.168 210.502 156.033 211.094L154.776 217H153.282ZM159.259 217H157.782L159.839 207.367H161.315L159.259 217ZM160.252 204.906C160.252 204.578 160.346 204.312 160.533 204.106C160.721 203.896 160.964 203.79 161.263 203.79C161.778 203.79 162.036 204.054 162.036 204.581C162.036 204.903 161.937 205.176 161.737 205.398C161.544 205.621 161.318 205.732 161.061 205.732C160.826 205.732 160.633 205.662 160.48 205.521C160.328 205.375 160.252 205.17 160.252 204.906ZM167.898 217H161.579L161.781 215.972L167.881 208.466H163.671L163.908 207.367H169.683L169.428 208.598L163.451 215.901H168.118L167.898 217ZM174.156 217.176C173.078 217.176 172.231 216.856 171.616 216.218C171.001 215.579 170.693 214.694 170.693 213.563C170.693 212.462 170.91 211.407 171.344 210.399C171.783 209.386 172.363 208.598 173.084 208.035C173.805 207.473 174.599 207.191 175.466 207.191C176.362 207.191 177.036 207.388 177.487 207.78C177.938 208.167 178.164 208.709 178.164 209.406C178.164 210.461 177.678 211.29 176.705 211.894C175.732 212.491 174.341 212.79 172.53 212.79H172.24L172.205 213.493C172.205 214.261 172.384 214.861 172.741 215.295C173.104 215.723 173.664 215.937 174.42 215.937C174.789 215.937 175.167 215.884 175.554 215.778C175.946 215.673 176.433 215.479 177.013 215.198V216.481C176.462 216.739 175.976 216.918 175.554 217.018C175.132 217.123 174.666 217.176 174.156 217.176ZM175.378 208.448C174.774 208.448 174.206 208.724 173.673 209.274C173.146 209.825 172.741 210.59 172.46 211.568H172.565C173.901 211.568 174.924 211.396 175.633 211.05C176.348 210.698 176.705 210.191 176.705 209.529C176.705 209.219 176.597 208.961 176.38 208.756C176.169 208.551 175.835 208.448 175.378 208.448ZM184.325 207.209C185.462 207.209 186.285 207.766 186.795 208.879H186.883C186.982 207.971 187.114 207.168 187.278 206.471L187.964 203.324H189.423L186.522 217H185.301L185.494 215.163H185.424C184.832 215.896 184.278 216.414 183.763 216.719C183.247 217.023 182.714 217.176 182.163 217.176C181.349 217.176 180.713 216.889 180.256 216.314C179.799 215.74 179.57 214.943 179.57 213.924C179.57 212.67 179.781 211.521 180.203 210.479C180.625 209.436 181.193 208.63 181.908 208.062C182.629 207.493 183.435 207.209 184.325 207.209ZM182.655 215.954C183.206 215.954 183.774 215.682 184.36 215.137C184.946 214.586 185.409 213.886 185.749 213.036C186.095 212.181 186.268 211.311 186.268 210.426C186.268 209.775 186.109 209.28 185.793 208.94C185.477 208.601 185.017 208.431 184.413 208.431C183.821 208.431 183.271 208.674 182.761 209.16C182.257 209.641 181.85 210.32 181.539 211.199C181.234 212.072 181.082 212.992 181.082 213.959C181.082 215.289 181.606 215.954 182.655 215.954ZM198.493 210.716L202.791 204.15H204.487L198.977 212.245L197.983 217H196.472L197.518 212.175L195.426 204.15H196.92L198.493 210.716ZM208.478 207.244C209.591 207.244 210.47 207.575 211.114 208.237C211.759 208.894 212.081 209.799 212.081 210.953C212.081 212.055 211.87 213.095 211.448 214.073C211.026 215.052 210.455 215.808 209.734 216.341C209.014 216.874 208.199 217.141 207.291 217.141C206.166 217.141 205.284 216.81 204.646 216.147C204.007 215.485 203.688 214.58 203.688 213.432C203.688 212.318 203.901 211.272 204.329 210.294C204.757 209.31 205.334 208.557 206.061 208.035C206.787 207.508 207.593 207.244 208.478 207.244ZM210.552 210.751C210.552 210.077 210.367 209.532 209.998 209.116C209.635 208.694 209.14 208.483 208.513 208.483C207.874 208.483 207.3 208.7 206.79 209.134C206.286 209.567 205.894 210.171 205.612 210.944C205.337 211.712 205.199 212.567 205.199 213.511C205.199 214.278 205.384 214.873 205.753 215.295C206.128 215.711 206.664 215.919 207.361 215.919C207.971 215.919 208.519 215.705 209.005 215.277C209.491 214.85 209.869 214.243 210.139 213.458C210.414 212.667 210.552 211.765 210.552 210.751ZM216.897 207.367L215.579 213.476C215.474 213.997 215.421 214.404 215.421 214.697C215.421 215.535 215.852 215.954 216.713 215.954C217.229 215.954 217.735 215.778 218.233 215.427C218.731 215.075 219.171 214.571 219.552 213.915C219.933 213.259 220.223 212.468 220.422 211.542L221.301 207.367H222.76L220.729 217H219.508L219.701 215.216H219.596C219.021 215.948 218.474 216.458 217.952 216.745C217.431 217.032 216.892 217.176 216.335 217.176C215.585 217.176 214.996 216.974 214.568 216.569C214.141 216.159 213.927 215.576 213.927 214.82C213.927 214.457 213.991 213.953 214.12 213.309L215.403 207.367H216.897ZM229.932 207.191C230.336 207.191 230.688 207.232 230.986 207.314L230.67 208.633C230.359 208.557 230.052 208.519 229.747 208.519C229.214 208.519 228.713 208.694 228.244 209.046C227.781 209.397 227.374 209.887 227.022 210.514C226.677 211.135 226.422 211.826 226.258 212.588L225.317 217H223.841L225.897 207.367H227.119L226.926 209.151H227.014C227.436 208.595 227.784 208.196 228.06 207.956C228.335 207.71 228.622 207.522 228.921 207.394C229.226 207.259 229.562 207.191 229.932 207.191ZM235.891 217L238.606 204.15H240.101L237.675 215.646H242.641L242.351 217H235.891ZM245.673 217H244.196L246.253 207.367H247.729L245.673 217ZM246.666 204.906C246.666 204.578 246.76 204.312 246.947 204.106C247.135 203.896 247.378 203.79 247.677 203.79C248.192 203.79 248.45 204.054 248.45 204.581C248.45 204.903 248.351 205.176 248.151 205.398C247.958 205.621 247.732 205.732 247.475 205.732C247.24 205.732 247.047 205.662 246.895 205.521C246.742 205.375 246.666 205.17 246.666 204.906ZM247.334 221.324C246.93 221.324 246.563 221.263 246.235 221.14V219.9C246.61 220.029 246.938 220.094 247.22 220.094C247.665 220.094 248.008 219.912 248.248 219.549C248.488 219.186 248.682 218.667 248.828 217.993L250.823 208.483H249.127L249.241 207.895L251.052 207.314L251.254 206.436C251.523 205.264 251.896 204.438 252.37 203.957C252.851 203.471 253.56 203.228 254.497 203.228C254.731 203.228 255.019 203.263 255.358 203.333C255.698 203.397 255.962 203.471 256.149 203.553L255.771 204.687C255.326 204.517 254.925 204.432 254.567 204.432C254.058 204.432 253.665 204.575 253.39 204.862C253.12 205.144 252.9 205.662 252.73 206.418L252.511 207.367H254.603L254.383 208.483H252.3L250.261 218.134C250.032 219.241 249.681 220.05 249.206 220.56C248.731 221.069 248.107 221.324 247.334 221.324ZM258.215 217.176C257.137 217.176 256.29 216.856 255.675 216.218C255.06 215.579 254.752 214.694 254.752 213.563C254.752 212.462 254.969 211.407 255.402 210.399C255.842 209.386 256.422 208.598 257.143 208.035C257.863 207.473 258.657 207.191 259.524 207.191C260.421 207.191 261.095 207.388 261.546 207.78C261.997 208.167 262.223 208.709 262.223 209.406C262.223 210.461 261.736 211.29 260.764 211.894C259.791 212.491 258.399 212.79 256.589 212.79H256.299L256.264 213.493C256.264 214.261 256.442 214.861 256.8 215.295C257.163 215.723 257.723 215.937 258.479 215.937C258.848 215.937 259.226 215.884 259.612 215.778C260.005 215.673 260.491 215.479 261.071 215.198V216.481C260.521 216.739 260.034 216.918 259.612 217.018C259.19 217.123 258.725 217.176 258.215 217.176ZM259.437 208.448C258.833 208.448 258.265 208.724 257.731 209.274C257.204 209.825 256.8 210.59 256.519 211.568H256.624C257.96 211.568 258.982 211.396 259.691 211.05C260.406 210.698 260.764 210.191 260.764 209.529C260.764 209.219 260.655 208.961 260.438 208.756C260.228 208.551 259.894 208.448 259.437 208.448Z" fill="black"/>
<path d="M18.8203 188H9.5625V161.305H1.19531V153.734H27.1641V161.305H18.8203V188ZM64.125 170.82C64.125 176.586 62.7109 180.969 59.8828 183.969C57.0547 186.969 52.9141 188.469 47.4609 188.469C42.0859 188.469 37.9609 186.961 35.0859 183.945C32.2266 180.93 30.7969 176.539 30.7969 170.773C30.7969 165.07 32.2188 160.719 35.0625 157.719C37.9219 154.703 42.0703 153.195 47.5078 153.195C52.9609 153.195 57.0938 154.688 59.9062 157.672C62.7188 160.656 64.125 165.039 64.125 170.82ZM40.5469 170.82C40.5469 177.445 42.8516 180.758 47.4609 180.758C49.8047 180.758 51.5391 179.953 52.6641 178.344C53.8047 176.734 54.375 174.227 54.375 170.82C54.375 167.398 53.7969 164.875 52.6406 163.25C51.5 161.609 49.7891 160.789 47.5078 160.789C42.8672 160.789 40.5469 164.133 40.5469 170.82ZM67.6172 178.789V171.477H80.8594V178.789H67.6172ZM114.68 170.141C114.68 175.859 113.102 180.266 109.945 183.359C106.805 186.453 102.383 188 96.6797 188H85.5938V153.734H97.4531C102.953 153.734 107.195 155.141 110.18 157.953C113.18 160.766 114.68 164.828 114.68 170.141ZM105.07 170.469C105.07 167.328 104.445 165 103.195 163.484C101.961 161.969 100.078 161.211 97.5469 161.211H94.8516V180.406H96.9141C99.7266 180.406 101.789 179.594 103.102 177.969C104.414 176.328 105.07 173.828 105.07 170.469ZM152.906 170.82C152.906 176.586 151.492 180.969 148.664 183.969C145.836 186.969 141.695 188.469 136.242 188.469C130.867 188.469 126.742 186.961 123.867 183.945C121.008 180.93 119.578 176.539 119.578 170.773C119.578 165.07 121 160.719 123.844 157.719C126.703 154.703 130.852 153.195 136.289 153.195C141.742 153.195 145.875 154.688 148.688 157.672C151.5 160.656 152.906 165.039 152.906 170.82ZM129.328 170.82C129.328 177.445 131.633 180.758 136.242 180.758C138.586 180.758 140.32 179.953 141.445 178.344C142.586 176.734 143.156 174.227 143.156 170.82C143.156 167.398 142.578 164.875 141.422 163.25C140.281 161.609 138.57 160.789 136.289 160.789C131.648 160.789 129.328 164.133 129.328 170.82ZM171.562 188V153.734H180.82V180.523H194.016V188H171.562ZM199.5 188V153.734H208.805V188H199.5ZM238.641 177.594C238.641 179.719 238.102 181.609 237.023 183.266C235.945 184.906 234.391 186.188 232.359 187.109C230.328 188.016 227.945 188.469 225.211 188.469C222.93 188.469 221.016 188.312 219.469 188C217.922 187.672 216.312 187.109 214.641 186.312V178.062C216.406 178.969 218.242 179.68 220.148 180.195C222.055 180.695 223.805 180.945 225.398 180.945C226.773 180.945 227.781 180.711 228.422 180.242C229.062 179.758 229.383 179.141 229.383 178.391C229.383 177.922 229.25 177.516 228.984 177.172C228.734 176.812 228.32 176.453 227.742 176.094C227.18 175.734 225.664 175 223.195 173.891C220.961 172.875 219.281 171.891 218.156 170.938C217.047 169.984 216.219 168.891 215.672 167.656C215.141 166.422 214.875 164.961 214.875 163.273C214.875 160.117 216.023 157.656 218.32 155.891C220.617 154.125 223.773 153.242 227.789 153.242C231.336 153.242 234.953 154.062 238.641 155.703L235.805 162.852C232.602 161.383 229.836 160.648 227.508 160.648C226.305 160.648 225.43 160.859 224.883 161.281C224.336 161.703 224.062 162.227 224.062 162.852C224.062 163.523 224.406 164.125 225.094 164.656C225.797 165.188 227.688 166.156 230.766 167.562C233.719 168.891 235.766 170.32 236.906 171.852C238.062 173.367 238.641 175.281 238.641 177.594ZM259.055 188H249.797V161.305H241.43V153.734H267.398V161.305H259.055V188Z" fill="black"/>
<path d="M293.366 140.334C293.703 139.897 293.94 139.39 294.06 138.851C294.18 138.312 294.181 137.753 294.062 137.213C293.943 136.674 293.707 136.167 293.371 135.729C293.035 135.29 292.608 134.931 292.118 134.676L292.864 126.072L287.751 124.343L286.868 136.508C286.494 137.36 286.446 138.319 286.732 139.204C287.018 140.089 287.618 140.838 288.419 141.31C289.22 141.781 290.165 141.943 291.077 141.763C291.988 141.583 292.803 141.075 293.365 140.335L293.366 140.334Z" fill="#FFB8B8"/>
<path d="M318.877 207.229H314.276L312.087 189.455H318.88L318.877 207.229Z" fill="#FFB8B8"/>
<path d="M310.988 205.912H319.865V211.507H305.399C305.399 210.023 305.988 208.6 307.036 207.55C308.085 206.501 309.506 205.912 310.988 205.912Z" fill="#2F2E41"/>
<path d="M308.43 195.435L303.961 196.534L297.598 179.799L304.194 178.176L308.43 195.435Z" fill="#FFB8B8"/>
<path d="M300.518 195.882L309.137 193.758L310.473 199.191L296.427 202.652C296.072 201.211 296.304 199.689 297.072 198.419C297.839 197.149 299.078 196.237 300.518 195.882V195.882Z" fill="#2F2E41"/>
<path d="M313.491 201.561C313.071 201.562 312.665 201.407 312.352 201.126C312.04 200.844 311.843 200.457 311.8 200.038L306.505 150.645L301.896 165.75L308.424 189.341C308.536 189.745 308.495 190.177 308.309 190.553C308.123 190.929 307.805 191.223 307.415 191.379L302.226 193.457C302.012 193.542 301.783 193.584 301.553 193.578C301.323 193.573 301.096 193.521 300.887 193.425C300.678 193.33 300.49 193.193 300.335 193.022C300.18 192.852 300.061 192.652 299.985 192.435L291.986 169.458C291.11 166.949 290.722 164.296 290.844 161.641L291.961 136.845L321.369 138.091L320.91 199.44C320.904 199.867 320.74 200.277 320.448 200.589C320.157 200.901 319.76 201.093 319.335 201.127L313.623 201.558C313.579 201.56 313.535 201.561 313.491 201.561Z" fill="#2F2E41"/>
<path d="M308.622 81.9684C314.083 81.9684 318.51 77.5364 318.51 72.0693C318.51 66.6021 314.083 62.1702 308.622 62.1702C303.161 62.1702 298.733 66.6021 298.733 72.0693C298.733 77.5364 303.161 81.9684 308.622 81.9684Z" fill="#FFB8B8"/>
<path d="M315.893 139.704C313.289 139.704 310.055 139.491 306.707 139.271C302.133 138.969 297.404 138.658 293.874 138.863C293.397 138.91 292.916 138.834 292.477 138.643C292.038 138.451 291.655 138.15 291.365 137.769C287.725 133.104 293.337 114.913 293.579 114.141L298.146 93.8004L298.343 93.8448L298.146 93.8004C299.153 89.3267 302.362 86.0266 306.526 85.1882C310.423 84.4047 314.193 85.9665 316.61 89.3698C316.739 89.5504 316.867 89.7356 316.995 89.9256C324.867 101.596 320.414 130.593 320.116 132.462C320.532 132.961 322.78 135.78 322.162 137.738C321.911 138.535 321.228 139.078 320.132 139.351C318.737 139.627 317.314 139.746 315.892 139.703L315.893 139.704Z" fill="#FFEA89"/>
<path d="M294.033 139.713C293.137 139.713 291.929 139.382 290.3 138.706C289.6 138.414 287.469 137.527 290.056 114.897C291.327 103.781 293.147 92.7427 293.165 92.6326L293.182 92.5262L293.281 92.4819C293.327 92.4605 297.976 90.3276 298.784 87.5866C298.811 87.4917 298.842 87.3997 298.878 87.3105C299.101 86.7012 299.55 86.2014 300.131 85.9154C300.713 85.6294 301.383 85.5794 302 85.7757C302.653 85.9318 303.221 86.3305 303.591 86.891C303.961 87.4515 304.103 88.1317 303.99 88.7937C303.709 90.5815 303.167 92.3185 302.383 93.9494C300.196 98.4675 298.714 110.445 298.699 110.566C298.616 111.589 296.631 135.825 296.248 137.664C296.115 138.307 295.869 139.092 295.148 139.474C294.802 139.645 294.419 139.728 294.034 139.716L294.033 139.713Z" fill="#2F2E41"/>
<path d="M304.835 138.785C304.655 138.785 304.479 138.724 304.337 138.613C301.427 136.4 306.135 109.574 308.926 100.318C309.486 98.4639 309.983 96.8772 310.406 95.5999C311.177 93.3081 311.715 90.9442 312.012 88.5443C312.166 87.2441 312.5 86.5017 313.034 86.2739C313.405 86.1156 313.839 86.2232 314.33 86.5936C316.91 86.4662 319.416 87.5206 321.738 88.6817L323.829 89.7256L326.174 131.299C326.108 133.952 320.883 135.825 318.605 135.945C314.946 136.137 308.375 136.734 305.48 138.568C305.29 138.7 305.067 138.775 304.836 138.784L304.835 138.785Z" fill="#2F2E41"/>
<path d="M291.768 130.984C291.733 130.984 291.699 130.984 291.664 130.981L286.926 130.689C286.69 130.675 286.46 130.611 286.249 130.503C286.039 130.394 285.854 130.243 285.706 130.059C285.557 129.875 285.448 129.662 285.387 129.434C285.325 129.206 285.311 128.967 285.346 128.733L287.49 114.514L291.526 94.5636C291.625 94.0722 291.827 93.6072 292.117 93.1987C292.408 92.7902 292.781 92.4474 293.212 92.1924C293.643 91.9375 294.123 91.7761 294.621 91.7188C295.118 91.6615 295.623 91.7094 296.1 91.8596V91.8596C296.917 92.1206 297.614 92.6653 298.065 93.3954C298.516 94.1256 298.691 94.9931 298.56 95.8413L295.353 115.832L293.455 129.514C293.397 129.921 293.194 130.293 292.884 130.563C292.574 130.833 292.178 130.982 291.768 130.984H291.768Z" fill="#2F2E41"/>
<path d="M307.955 115.421C308.243 114.95 308.632 114.548 309.093 114.244C309.554 113.94 310.075 113.741 310.621 113.66C311.167 113.58 311.724 113.62 312.253 113.779C312.782 113.937 313.27 114.21 313.682 114.577L321.45 110.821L324.882 114.99L313.837 120.14C313.175 120.793 312.296 121.179 311.368 121.226C310.44 121.273 309.527 120.978 308.802 120.396C308.077 119.814 307.59 118.986 307.434 118.07C307.278 117.153 307.463 116.21 307.955 115.421V115.421Z" fill="#FFB8B8"/>
<path d="M318.746 119.455C318.364 119.455 317.992 119.326 317.692 119.089C317.391 118.852 317.179 118.521 317.09 118.149L315.962 113.453C315.876 113.1 315.906 112.729 316.046 112.393C316.187 112.058 316.431 111.777 316.744 111.591L323.548 107.514L320.069 94.7645C319.768 93.6726 319.906 92.5063 320.454 91.515C321.001 90.5237 321.914 89.7864 322.998 89.4608C324.081 89.1352 325.249 89.2472 326.252 89.7728C327.254 90.2985 328.011 91.196 328.36 92.2733L332.201 104.012C332.672 105.443 332.676 106.987 332.211 108.42C331.746 109.853 330.837 111.101 329.615 111.981L319.743 119.131C319.453 119.341 319.104 119.455 318.746 119.455V119.455Z" fill="#2F2E41"/>
<path d="M245.229 0H54.7155C52.9351 0.00213325 51.2282 0.711107 49.9693 1.9714C48.7103 3.2317 48.0021 4.94041 48 6.72273V27.2456C48.0021 29.028 48.7103 30.7367 49.9693 31.997C51.2282 33.2573 52.9351 33.9662 54.7155 33.9684H245.229C247.009 33.9662 248.716 33.2573 249.975 31.997C251.234 30.7367 251.942 29.028 251.944 27.2456V6.72273C251.942 4.94041 251.234 3.2317 249.975 1.9714C248.716 0.711107 247.009 0.00213325 245.229 0ZM251.237 27.2456C251.235 28.8402 250.601 30.3688 249.475 31.4963C248.348 32.6238 246.822 33.2583 245.229 33.2606H54.7155C53.1227 33.2583 51.5958 32.6238 50.4694 31.4963C49.3431 30.3688 48.7093 28.8402 48.707 27.2456V6.72273C48.7093 5.12818 49.3431 3.5996 50.4694 2.47208C51.5958 1.34456 53.1227 0.710086 54.7155 0.70774H245.229C246.822 0.710086 248.348 1.34456 249.475 2.47208C250.601 3.5996 251.235 5.12818 251.237 6.72273V27.2456Z" fill="#3F3D56"/>
<path d="M245.229 82.4436H54.7155C52.9351 82.4414 51.2282 81.7324 49.9693 80.4721C48.7103 79.2118 48.0021 77.5031 48 75.7208V55.1983C48.0021 53.416 48.7103 51.7073 49.9693 50.447C51.2282 49.1867 52.9351 48.4777 54.7155 48.4756H245.229C247.009 48.4777 248.716 49.1867 249.975 50.447C251.234 51.7073 251.942 53.416 251.944 55.1983V75.7208C251.942 77.5031 251.234 79.2118 249.975 80.4721C248.716 81.7324 247.009 82.4414 245.229 82.4436ZM54.7155 49.1833C53.1225 49.1851 51.5953 49.8194 50.4689 50.9471C49.3424 52.0747 48.7088 53.6036 48.707 55.1983V75.7208C48.7085 77.3157 49.342 78.8449 50.4684 79.9728C51.5949 81.1007 53.1223 81.7352 54.7155 81.737H245.229C246.822 81.7353 248.349 81.1011 249.476 79.9734C250.602 78.8458 251.236 77.3168 251.238 75.722V55.1983C251.236 53.6036 250.602 52.0747 249.476 50.9471C248.349 49.8194 246.822 49.1851 245.229 49.1833H54.7155Z" fill="#CCCCCC"/>
<path d="M245.229 130.919H54.7155C52.9351 130.917 51.2282 130.208 49.9693 128.947C48.7103 127.687 48.0021 125.978 48 124.196V103.674C48.0021 101.891 48.7103 100.183 49.9693 98.9223C51.2282 97.662 52.9351 96.9531 54.7155 96.9509H245.229C247.009 96.9531 248.716 97.662 249.975 98.9223C251.234 100.183 251.942 101.891 251.944 103.674V124.196C251.942 125.978 251.234 127.687 249.975 128.947C248.716 130.208 247.009 130.917 245.229 130.919ZM54.7155 97.6571C53.1225 97.6589 51.5953 98.2932 50.4689 99.4208C49.3424 100.548 48.7088 102.077 48.707 103.672V124.195C48.7087 125.789 49.3423 127.318 50.4687 128.446C51.5952 129.574 53.1225 130.208 54.7155 130.21H245.229C246.822 130.208 248.349 129.574 249.476 128.446C250.602 127.319 251.236 125.79 251.238 124.195V103.674C251.236 102.079 250.603 100.549 249.476 99.4212C248.35 98.2932 246.822 97.6588 245.229 97.6571H54.7155Z" fill="#CCCCCC"/>
<path d="M80.4581 28.6854C78.1463 28.6854 75.8865 27.9992 73.9643 26.7134C72.0421 25.4277 70.544 23.6002 69.6593 21.4621C68.7746 19.324 68.5431 16.9713 68.9941 14.7015C69.4451 12.4317 70.5584 10.3468 72.193 8.71038C73.8277 7.07395 75.9104 5.95953 78.1778 5.50804C80.4452 5.05655 82.7954 5.28827 84.9312 6.1739C87.067 7.05953 88.8925 8.55929 90.1768 10.4835C91.4612 12.4078 92.1467 14.6701 92.1467 16.9843C92.1467 20.0876 90.9153 23.0639 88.7232 25.2583C86.5312 27.4526 83.5581 28.6854 80.4581 28.6854Z" fill="#FFEA89"/>
<path d="M227.971 26.5375H103.202C102.452 26.5375 101.733 26.2393 101.202 25.7084C100.672 25.1775 100.374 24.4575 100.374 23.7067C100.374 22.956 100.672 22.236 101.202 21.7051C101.733 21.1742 102.452 20.876 103.202 20.876H227.971C228.721 20.876 229.44 21.1742 229.97 21.7051C230.501 22.236 230.799 22.956 230.799 23.7067C230.799 24.4575 230.501 25.1775 229.97 25.7084C229.44 26.2393 228.721 26.5375 227.971 26.5375V26.5375Z" fill="#CCCCCC"/>
<path d="M187.322 14.507H103.2C102.45 14.507 101.731 14.2087 101.2 13.6779C100.67 13.147 100.372 12.427 100.372 11.6762C100.372 10.9255 100.67 10.2054 101.2 9.67457C101.731 9.1437 102.45 8.84546 103.2 8.84546H187.322C188.072 8.84546 188.791 9.1437 189.322 9.67457C189.852 10.2054 190.15 10.9255 190.15 11.6762C190.15 12.427 189.852 13.147 189.322 13.6779C188.791 14.2087 188.072 14.507 187.322 14.507V14.507Z" fill="#CCCCCC"/>
<path d="M80.4581 77.1605C78.1463 77.1605 75.8865 76.4743 73.9643 75.1885C72.0421 73.9028 70.544 72.0753 69.6593 69.9372C68.7746 67.7991 68.5431 65.4464 68.9941 63.1766C69.4451 60.9069 70.5584 58.8219 72.193 57.1855C73.8277 55.5491 75.9104 54.4346 78.1778 53.9831C80.4452 53.5316 82.7954 53.7634 84.9312 54.649C87.067 55.5346 88.8925 57.0344 90.1768 58.9586C91.4612 60.8829 92.1467 63.1452 92.1467 65.4594C92.1467 68.5627 90.9153 71.539 88.7232 73.7333C86.5312 75.9277 83.5581 77.1605 80.4581 77.1605V77.1605Z" fill="#E6E6E6"/>
<path d="M227.971 75.0128H103.202C102.452 75.0128 101.733 74.7146 101.202 74.1837C100.672 73.6529 100.374 72.9328 100.374 72.1821C100.374 71.4313 100.672 70.7113 101.202 70.1804C101.733 69.6496 102.452 69.3513 103.202 69.3513H227.971C228.721 69.3513 229.44 69.6496 229.97 70.1804C230.501 70.7113 230.799 71.4313 230.799 72.1821C230.799 72.9328 230.501 73.6529 229.97 74.1837C229.44 74.7146 228.721 75.0128 227.971 75.0128Z" fill="#E6E6E6"/>
<path d="M187.322 62.9826H103.2C102.45 62.9826 101.731 62.6843 101.2 62.1535C100.67 61.6226 100.372 60.9026 100.372 60.1518C100.372 59.401 100.67 58.681 101.2 58.1502C101.731 57.6193 102.45 57.321 103.2 57.321H187.322C188.072 57.321 188.791 57.6193 189.322 58.1502C189.852 58.681 190.15 59.401 190.15 60.1518C190.15 60.9026 189.852 61.6226 189.322 62.1535C188.791 62.6843 188.072 62.9826 187.322 62.9826V62.9826Z" fill="#E6E6E6"/>
<path d="M80.4581 125.636C78.1463 125.636 75.8865 124.949 73.9643 123.664C72.0421 122.378 70.544 120.55 69.6593 118.412C68.7746 116.274 68.5431 113.922 68.9941 111.652C69.4451 109.382 70.5584 107.297 72.193 105.661C73.8277 104.024 75.9104 102.91 78.1778 102.458C80.4452 102.007 82.7954 102.238 84.9312 103.124C87.067 104.01 88.8925 105.509 90.1768 107.434C91.4612 109.358 92.1467 111.62 92.1467 113.935C92.1467 117.038 90.9153 120.014 88.7232 122.208C86.5312 124.403 83.5581 125.636 80.4581 125.636V125.636Z" fill="#E6E6E6"/>
<path d="M227.971 123.488H103.202C102.452 123.488 101.733 123.19 101.202 122.659C100.672 122.128 100.374 121.408 100.374 120.658C100.374 119.907 100.672 119.187 101.202 118.656C101.733 118.125 102.452 117.827 103.202 117.827H227.971C228.721 117.827 229.44 118.125 229.97 118.656C230.501 119.187 230.799 119.907 230.799 120.658C230.799 121.408 230.501 122.128 229.97 122.659C229.44 123.19 228.721 123.488 227.971 123.488Z" fill="#E6E6E6"/>
<path d="M187.322 111.458H103.2C102.45 111.458 101.731 111.16 101.2 110.629C100.67 110.098 100.372 109.378 100.372 108.627C100.372 107.876 100.67 107.156 101.2 106.625C101.731 106.095 102.45 105.796 103.2 105.796H187.322C188.072 105.796 188.791 106.095 189.322 106.625C189.852 107.156 190.15 107.876 190.15 108.627C190.15 109.378 189.852 110.098 189.322 110.629C188.791 111.16 188.072 111.458 187.322 111.458V111.458Z" fill="#E6E6E6"/>
<path d="M79.861 21.1001C79.5707 21.1007 79.288 21.0068 79.0558 20.8325L79.0413 20.8216L76.0116 18.5017C75.8713 18.394 75.7535 18.2597 75.6651 18.1064C75.5766 17.9532 75.5191 17.784 75.496 17.6085C75.4728 17.4331 75.4844 17.2548 75.5301 17.0838C75.5758 16.9128 75.6547 16.7525 75.7622 16.612C75.8698 16.4715 76.0039 16.3536 76.157 16.2651C76.3101 16.1765 76.4791 16.119 76.6544 16.0958C76.8297 16.0726 77.0078 16.0842 77.1786 16.1299C77.3494 16.1757 77.5095 16.2546 77.6498 16.3623L79.6122 17.8689L84.2491 11.8128C84.4662 11.5293 84.787 11.3438 85.1408 11.297C85.4946 11.2502 85.8524 11.346 86.1357 11.5633V11.5633L86.1071 11.6036L86.1365 11.5633C86.4193 11.781 86.6044 12.1022 86.651 12.4563C86.6977 12.8105 86.6021 13.1687 86.3853 13.4524L80.9311 20.5725C80.8048 20.7362 80.6424 20.8687 80.4567 20.9595C80.271 21.0504 80.0669 21.0972 79.8602 21.0965L79.861 21.1001Z" fill="white"/>
<path d="M348.597 212H268.88C268.773 212 268.671 211.957 268.595 211.882C268.52 211.806 268.478 211.704 268.478 211.597C268.478 211.49 268.52 211.387 268.595 211.312C268.671 211.236 268.773 211.194 268.88 211.194H348.597C348.704 211.194 348.806 211.236 348.882 211.312C348.957 211.387 349 211.49 349 211.597C349 211.704 348.957 211.806 348.882 211.882C348.806 211.957 348.704 212 348.597 212Z" fill="#CCCCCC"/>
<path d="M312.256 74.7077C312.256 74.7077 311.053 68.0469 308.315 68.8427C305.576 69.6385 298.529 70.4528 298.516 67.3159C298.503 64.1791 305.15 61.4064 309.068 61.7817C312.987 62.1569 319.65 63.305 319.283 69.1882C318.989 72.8934 317.846 76.4809 315.94 79.6712L312.256 74.7077Z" fill="#2F2E41"/>
</svg>
