<svg width="7" height="7" viewBox="0 0 7 7" fill="none" xmlns="http://www.w3.org/2000/svg">
<path fill-rule="evenodd" clip-rule="evenodd" d="M2.1933 1.52338C2.97435 2.30443 4.24068 2.30443 5.02173 1.52339L5.95189 0.593218C6.13686 0.408251 6.43675 0.408251 6.62172 0.593218C6.80668 0.778184 6.80668 1.07807 6.62172 1.26304L5.69155 2.19321C4.9105 2.97426 4.9105 4.24059 5.69155 5.02164L6.62172 5.9518C6.80668 6.13677 6.80668 6.43666 6.62172 6.62163C6.43675 6.80659 6.13686 6.80659 5.95189 6.62163L5.02173 5.69146C4.24068 4.91041 2.97435 4.91041 2.1933 5.69146L1.26313 6.62163C1.07816 6.80659 0.778273 6.80659 0.593307 6.62163C0.40834 6.43666 0.40834 6.13677 0.593307 5.9518L1.52347 5.02164C2.30452 4.24059 2.30452 2.97426 1.52347 2.19321L0.593307 1.26304C0.40834 1.07807 0.40834 0.778184 0.593307 0.593218C0.778273 0.408251 1.07816 0.408251 1.26313 0.593218L2.1933 1.52338Z" fill="white"/>
</svg>
